<svg xmlns="http://www.w3.org/2000/svg" viewBox="20 -75 3387.32 964" width="3387" height="964">
  <defs><clipPath id="s"><polygon points="50,32 18.2,-18.88 50,-28 81.79,-18.88"></polygon></clipPath></defs>
  <g transform="translate(0 708) scale(1 -1)">
    <path fill="#0B1F3A" transform="translate(0 0) scale(1.04 1)" d="M288 782Q323 782 349 773Q375 764 395 749Q409 738 419 718.5Q429 699 429 674Q429 647 409.5 626Q390 605 358 605Q325 605 303.5 624Q282 643 282 676Q282 702 297 722Q312 742 341 750Q338 756 329 760Q320 764 305 764Q285 764 272 757Q259 750 251 738Q240 723 236 694.5Q232 666 232 607L232 516L339 516L339 496L232 496L232 103Q232 54 257 37.5Q282 21 326 21L326 0Q300 1 253 2.5Q206 4 154 4Q116 4 79.5 2.5Q43 1 24 0L24 21Q59 21 73.5 36Q88 51 88 93L88 496L20 496L20 516L88 516Q88 575 94 614.5Q100 654 114 682Q128 710 151 732Q173 753 209.5 767.5Q246 782 288 782Z"></path>
    <path fill="#0B1F3A" transform="translate(379.8 0)" d="M222 531Q264 531 295.5 520.5Q327 510 341 500Q375 477 383 530L404 530Q402 502 401 461.5Q400 421 400 354L379 354Q374 391 360 427Q346 463 319.5 486Q293 509 251 509Q222 509 202 492.5Q182 476 182 445Q182 415 200 392.5Q218 370 246.5 349.5Q275 329 306 306Q339 281 366 256.5Q393 232 409 203Q425 174 425 134Q425 89 399 55.5Q373 22 330.5 4Q288 -14 236 -14Q206 -14 182.5 -8Q159 -2 142 7Q129 13 117.5 18.5Q106 24 96 28Q86 31 78.5 21Q71 11 67 -7L46 -7Q48 25 49 71Q50 117 50 193L71 193Q77 139 93 97.5Q109 56 136.5 32.5Q164 9 206 9Q223 9 239 16Q255 23 265.5 39Q276 55 276 80Q276 124 247.5 153Q219 182 175 216Q143 242 114.5 267.5Q86 293 68 323.5Q50 354 50 393Q50 438 74 469Q98 500 137.5 515.5Q177 531 222 531Z"></path>
    <path fill="#0B1F3A" transform="translate(845.8 0)" d="M228 528L228 -82Q228 -129 252 -144.5Q276 -160 318 -160L318 -181Q292 -180 246.5 -178.5Q201 -177 150 -177Q113 -177 77.5 -178.5Q42 -180 24 -181L24 -160Q57 -160 70.5 -146Q84 -132 84 -92L84 408Q84 453 70 474.5Q56 496 20 496L20 517Q52 514 82 514Q123 514 160 517.5Q197 521 228 528ZM383 531Q434 531 474 503.5Q514 476 538 420.5Q562 365 562 282Q562 209 545.5 154Q529 99 498.5 61.5Q468 24 425.5 5Q383 -14 330 -14Q291 -14 259 -0.5Q227 13 210 38L220 51Q230 33 248.5 23Q267 13 291 13Q336 13 362 43.5Q388 74 399.5 129.5Q411 185 411 262Q411 348 400 397Q389 446 370 467Q351 488 324 488Q288 488 258.5 460Q229 432 225 380L220 415Q238 472 281.5 501.5Q325 531 383 531Z"></path>
    <path fill="#0B1F3A" transform="translate(1439.4 0)" d="M162 -7Q117 -7 87 10Q57 27 43 55.5Q29 84 29 118Q29 161 48.5 188Q68 215 99 232Q130 249 164.5 260Q199 271 230.5 281.5Q262 292 281.5 306.5Q301 321 301 344L301 422Q301 448 292.5 468.5Q284 489 266.5 500Q249 511 221 511Q201 511 181 505.5Q161 500 148 487Q176 477 191.5 456.5Q207 436 207 410Q207 376 183.5 356Q160 336 128 336Q92 336 73.5 358.5Q55 381 55 413Q55 442 69.5 461Q84 480 110 497Q138 513 177.5 522Q217 531 263 531Q309 531 346 521.5Q383 512 408 487Q431 464 438 430.5Q445 397 445 346L445 74Q445 49 450 39.5Q455 30 467 30Q476 30 484.5 35Q493 40 503 47L513 30Q492 12 464.5 2.5Q437 -7 403 -7Q366 -7 344 3.5Q322 14 312.5 32Q303 50 303 74Q279 36 245 14.5Q211 -7 162 -7ZM233 57Q253 57 269.5 66.5Q286 76 301 98L301 303Q292 288 276 276Q260 264 242 251.5Q224 239 207.5 224Q191 209 181 187Q171 165 171 134Q171 95 188 76Q205 57 233 57Z"></path>
    <path fill="#0B1F3A" transform="translate(1957.2 0)" d="M368 531Q400 531 420 517.5Q440 504 449.5 483Q459 462 459 439Q459 402 437.5 378.5Q416 355 381 355Q346 355 326.5 372.5Q307 390 307 419Q307 447 319.5 465.5Q332 484 351 497Q337 501 323 496Q304 493 287 480.5Q270 468 258 449.5Q246 431 239 409.5Q232 388 232 368L232 103Q232 55 255.5 38Q279 21 326 21L326 0Q303 1 259 2.5Q215 4 167 4Q127 4 86 2.5Q45 1 24 0L24 21Q59 21 73.5 36Q88 51 88 93L88 408Q88 453 74.5 474.5Q61 496 24 496L24 517Q56 514 86 514Q128 514 164.5 517.5Q201 521 232 528L232 435Q244 462 264 484Q284 506 310 518.5Q336 531 368 531Z"></path>
    <path fill="#0B1F3A" transform="translate(2383.8 0)" d="M227 783L227 93Q227 51 240.5 36Q254 21 287 21L287 0Q268 1 231.5 2.5Q195 4 157 4Q118 4 78.5 2.5Q39 1 19 0L19 21Q54 21 68.5 36Q83 51 83 93L83 663Q83 708 69.5 729.5Q56 751 19 751L19 772Q51 769 81 769Q122 769 159 772.5Q196 776 227 783ZM553 517L553 497Q522 491 491 471Q460 451 428 420L351 340L361 359L532 73Q543 55 555 41Q567 27 584 21L584 0Q569 1 539 2.5Q509 4 479 4Q442 4 405 2.5Q368 1 350 0L350 21Q370 21 377 30.5Q384 40 375 55L276 234Q264 253 252.5 258.5Q241 264 222 265L222 284Q243 286 258.5 291Q274 296 287 310L363 384Q397 416 397 441Q397 466 375.5 481Q354 496 319 497L319 517Q347 516 380 515Q413 514 436 514Q456 514 478.5 514.5Q501 515 521 515.5Q541 516 553 517Z"></path>
  </g>
  <g transform="translate(2826.76 0) scale(7.08)">
  <path fill="#0B1F3A" fill-rule="evenodd" d="M18 32 A32 32 0 1 0 82 32 A32 32 0 1 0 18 32 Z M33.5 32 A16.5 19.5 0 1 1 66.5 32 A16.5 19.5 0 1 1 33.5 32 Z"></path>
  <path fill="#0B1F3A" d="M82 32 C82 54 78 78 63 100 L50 96.5 C61 76 70 52 70 36 Z"></path>
  <path fill="#A67C3D" fill-rule="evenodd" clip-path="url(#s)" d="M18 32 A32 32 0 1 0 82 32 A32 32 0 1 0 18 32 Z M33.5 32 A16.5 19.5 0 1 1 66.5 32 A16.5 19.5 0 1 1 33.5 32 Z"></path>
  </g>
</svg>